<svg xmlns="http://www.w3.org/2000/svg" xmlns:xlink="http://www.w3.org/1999/xlink" viewBox="0 0 48 48"><defs><linearGradient id="e"><stop offset="0" stop-color="#fff"/><stop offset="1" stop-color="#fff" stop-opacity="0"/></linearGradient><linearGradient id="c"><stop offset="0" stop-color="#eeeeec"/><stop offset="1" stop-color="#eeeeec" stop-opacity="0"/></linearGradient><linearGradient id="d"><stop offset="0"/><stop offset="1" stop-opacity="0"/></linearGradient><linearGradient id="b"><stop offset="0" stop-color="#fff"/><stop offset="1" stop-color="#fff" stop-opacity="0"/></linearGradient><linearGradient id="a"><stop offset="0" stop-color="#fff"/><stop offset="1" stop-opacity="0"/></linearGradient><linearGradient id="f"><stop offset="0" stop-color="#fff"/><stop offset="1" stop-color="#fff" stop-opacity="0"/></linearGradient><radialGradient xlink:href="#e" id="g" gradientUnits="userSpaceOnUse" gradientTransform="matrix(.56834 -.14774 .1224 .69984 9.816 6.702)" cx="11.708" cy="36.528" fx="11.708" fy="36.528" r="14.337"/><radialGradient xlink:href="#f" id="h" cx="19.016" cy="19.611" fx="19.016" fy="19.611" r="15.627" gradientTransform="matrix(-.21583 1.11732 -1.08036 -.20156 42.177 -6.123)" gradientUnits="userSpaceOnUse"/></defs><path d="M24.01 2.885L35.92 21.108c7.631 11.674-.394 24.297-11.92 24.297-11.525 0-19.563-12.627-11.925-24.294z" fill="#4c90e8" fill-rule="evenodd" stroke="#094491" stroke-width="3.19"/><path d="M28.25 24.077c-6.514-2.656-9.932 4.13-8.845 7.3 2.364 6.897 11.278 8.624 17.862-2.865 0 0 .07 1.386.14 2.046.883 8.377-6.163 13.71-13.303 13.605-7.14-.104-9.32-2.877-11.425-6.069-3.413-5.178-2.561-13.615 2.028-17.56 5.238-4.33 11.004-2.019 13.542 3.543z" fill="#094491" fill-rule="evenodd"/><path d="M24.158 21.569c-7.295.177-8.68 8.584-6.66 12.185 2.81 5.006 7.073 5.969 12.906 4.12-3.33 3.622-10.166 4.58-14.81-.592-3.194-3.56-3.473-8.526-1.256-12.674 2.217-4.149 6.638-5.302 9.82-3.04z" fill="#83b8f9" fill-rule="evenodd"/></svg>