<svg id="Layer_1" data-name="Layer 1" xmlns="http://www.w3.org/2000/svg" viewBox="0 0 1000 1000"><defs><style>.cls-1{fill:#070002;}.cls-2{fill:#a0f8a0;}</style></defs><rect class="cls-1" x="-0.5" width="1000" height="1000" rx="257"/><path class="cls-2" d="M647.46,543.19H353.54A167.23,167.23,0,0,1,186.31,376V340.73A167.23,167.23,0,0,1,353.54,173.5H647.46A167.23,167.23,0,0,1,814.69,340.73V376A167.23,167.23,0,0,1,647.46,543.19Zm-314.92-111H668.46A35.23,35.23,0,0,0,703.69,397V319.73a35.23,35.23,0,0,0-35.23-35.23H332.54a35.23,35.23,0,0,0-35.23,35.23V397A35.23,35.23,0,0,0,332.54,432.19Z"/><path class="cls-2" d="M252.05,562.93c47.69,23.44,95.21,68.94,94.34,123.23.45,54.12-46.68,99.65-94.34,123.23H241c-2.84-25.65-4.09-51.32-4.85-77-1-33.15-.84-67,.19-100.12.91-23.11,2-46.24,4.66-69.32Z"/><path class="cls-2" d="M760.05,562.93c5.83,56.24,6.19,113,4.86,169.44-.76,25.68-2,51.39-4.86,77H749A211.44,211.44,0,0,1,722.57,794c-68.12-45.66-94.23-119.19-35.46-184.84,17.61-19.14,37.22-33.8,61.84-46.21Z"/></svg>