<svg xmlns="http://www.w3.org/2000/svg" viewBox="0 0 552 558.59"><defs><style>.cls-1{fill:#f9f9f9;}</style></defs><g id="Layer_2" data-name="Layer 2"><g id="Layer_1-2" data-name="Layer 1"><path class="cls-1" d="M405.09,324.75H146.91A146.9,146.9,0,0,1,0,177.85V146.91A146.91,146.91,0,0,1,146.91,0H405.09A146.91,146.91,0,0,1,552,146.91v30.94A146.9,146.9,0,0,1,405.09,324.75Zm-276.64-97.5h295.1a31,31,0,0,0,30.94-30.95V128.45a30.94,30.94,0,0,0-30.94-30.94H128.45a30.94,30.94,0,0,0-30.94,30.94V196.3A31,31,0,0,0,128.45,227.25Z"/><path class="cls-1" d="M57.75,342.1c41.89,20.58,83.64,60.56,82.87,108.25.39,47.54-41,87.53-82.87,108.24H48c-2.49-22.52-3.59-45.07-4.26-67.65-.85-29.12-.74-58.83.17-87.95.8-20.31,1.78-40.62,4.09-60.89Z"/><path class="cls-1" d="M504,342.1c5.12,49.4,5.44,99.25,4.27,148.84-.66,22.56-1.76,45.14-4.27,67.65h-9.75a185.42,185.42,0,0,1-23.17-13.53C411.24,505,388.3,440.35,439.93,382.69c15.47-16.81,32.69-29.69,54.32-40.59Z"/></g></g></svg>