<?xml version="1.0" encoding="UTF-8"?>
<svg id="Layer_1" data-name="Layer 1" xmlns="http://www.w3.org/2000/svg" viewBox="0 0 1000 1000">
  <defs>
    <style>
      .cls-1 {
        fill: #f9f9f9;
      }

      .cls-2 {
        fill: none;
        opacity: .25;
      }
    </style>
  </defs>
  <g class="cls-2">
    <path class="cls-1" d="m629.09,545.46h-258.19c-81.13,0-146.91-65.77-146.91-146.91v-30.94c0-81.13,65.77-146.91,146.91-146.91h258.19c81.13,0,146.91,65.77,146.91,146.91v30.94c0,81.13-65.77,146.91-146.91,146.91Zm-276.64-97.51h295.09c17.09,0,30.95-13.86,30.95-30.95v-67.85c0-17.09-13.86-30.95-30.95-30.95h-295.09c-17.09,0-30.95,13.86-30.95,30.95v67.85c0,17.09,13.86,30.95,30.95,30.95Z"/>
    <g>
      <path class="cls-1" d="m281.75,562.8c41.89,20.58,83.64,60.56,82.88,108.25.39,47.54-41.01,87.54-82.88,108.25,0,0-9.75,0-9.75,0-2.49-22.53-3.59-45.08-4.26-67.66-.85-29.12-.73-58.83.17-87.95.8-20.3,1.79-40.62,4.09-60.89,0,0,9.75,0,9.75,0h0Z"/>
      <path class="cls-1" d="m728,562.8c5.12,49.4,5.44,99.25,4.27,148.84-.67,22.56-1.76,45.15-4.27,67.66h-9.75c-9.3-4.51-16.44-9.02-23.17-13.53-59.84-40.11-82.78-104.71-31.15-162.37,15.47-16.81,32.69-29.69,54.32-40.59,0,0,9.75,0,9.75,0h0Z"/>
    </g>
  </g>
</svg>