<?xml version="1.0" encoding="utf-8"?>
<!-- Generator: Adobe Illustrator 25.2.3, SVG Export Plug-In . SVG Version: 6.00 Build 0)  -->
<svg version="1.1" id="Layer_1" xmlns="http://www.w3.org/2000/svg" xmlns:xlink="http://www.w3.org/1999/xlink" x="0px" y="0px"
	 viewBox="0 0 138.1 80.5" style="enable-background:new 0 0 138.1 80.5;" xml:space="preserve">
<style type="text/css">
	.st0{fill:url(#SVGID_1_);}
</style>
<linearGradient id="SVGID_1_" gradientUnits="userSpaceOnUse" x1="26.0815" y1="-2.687" x2="112.0315" y2="83.263" gradientTransform="matrix(1 0 0 -1 0 80.4965)">
	<stop  offset="0" style="stop-color:#E32929"/>
	<stop  offset="1" style="stop-color:#FF8D30"/>
</linearGradient>
<path class="st0" d="M65.8,21h6.5v38.5h-6.5V21z M8.9,59.5H2.4V21h6.5V59.5z M34.1,64.1h6.5v14.7h-6.5V64.1z M18.2,47.6h6.5v23.8
	h-6.5C18.2,71.4,18.2,47.6,18.2,47.6z M49.9,47.6h6.5v23.8h-6.5V47.6z M129.3,21h6.5v38.5h-6.5C129.3,59.5,129.3,21,129.3,21z
	 M104.1,16.5h-6.5V1.8h6.5C104.1,1.8,104.1,16.5,104.1,16.5z M120,32.9h-6.5V9.2h6.5V32.9z M88.2,32.9h-6.5V9.2h6.5V32.9z"/>
</svg>
